<svg width="164" height="41" viewBox="0 0 164 41" fill="none" xmlns="http://www.w3.org/2000/svg">
<path fill-rule="evenodd" clip-rule="evenodd" d="M145.466 30.6093L151.159 22.4337L145.727 14.6406H150.982L153.824 19.454L156.867 14.6406H162.006L156.496 22.2435L162.159 30.6093H157.185L153.85 25.32L150.814 30.6093H145.466Z" fill="white"/>
<path fill-rule="evenodd" clip-rule="evenodd" d="M129.638 22.9204C129.638 28.2593 132.531 31.1406 137.522 31.1406C142.19 31.1406 145.338 28.3156 145.338 22.9768V22.5272C145.338 17.1322 142.136 14.1406 137.522 14.1406C133.014 14.1406 129.638 17.0196 129.638 22.4708V22.9204ZM141.081 22.852C141.081 25.5246 139.761 27.2018 137.469 27.2018C135.178 27.2018 133.895 25.5048 133.895 22.8575V22.5012C133.895 19.6503 135.258 18.1072 137.496 18.1072C139.761 18.1072 141.081 19.7466 141.081 22.4956V22.852Z" fill="white"/>
<path fill-rule="evenodd" clip-rule="evenodd" d="M116.401 27.9707C117.269 30.0427 118.779 31.0601 121.439 31.0601C125.081 31.0601 127.249 28.0961 127.249 22.7201L127.243 22.3671C127.243 17.1597 124.323 14.1404 121.551 14.1201C119.003 14.1201 117.193 15.0605 116.002 17.6791V9.63281H112.039V30.6401H115.517L116.401 27.9707ZM122.997 22.7661C122.997 25.8242 121.779 27.225 119.36 27.225C117.137 27.225 116.195 25.465 116.195 22.827V22.5426C116.195 19.7753 117.271 18.23 119.52 18.23C121.636 18.23 122.997 19.4558 122.997 22.4299V22.7661Z" fill="white"/>
<path fill-rule="evenodd" clip-rule="evenodd" d="M94.0332 14.671V36.6491H97.9995V28.0451C98.8675 29.9211 100.491 31.0884 103.067 31.0884C106.503 31.0884 109.163 28.3667 109.163 23.0467L109.216 22.0499C109.216 16.942 106.542 14.1484 103.067 14.1484C100.407 14.1484 99.3242 15.0374 98.5052 17.463L97.5474 14.7122L94.0332 14.671ZM105.028 22.8382C105.028 25.5109 103.947 27.2505 101.448 27.2505C98.9502 27.2505 98.019 25.4039 98.019 22.7567V22.4003C98.019 19.5494 99.0373 18.1559 101.477 18.1559C103.947 18.1559 105.028 19.7328 105.028 22.4818V22.8382Z" fill="white"/>
<path fill-rule="evenodd" clip-rule="evenodd" d="M75.6533 22.9204C75.6533 28.2593 78.547 31.1406 83.5372 31.1406C88.2054 31.1406 91.3535 28.3156 91.3535 22.9768V22.5272C91.3535 17.1322 88.1517 14.1406 83.5372 14.1406C79.0299 14.1406 75.6533 17.0196 75.6533 22.4708V22.9204ZM87.0967 22.852C87.0967 25.5246 85.7762 27.2018 83.4848 27.2018C81.1934 27.2018 79.9107 25.5048 79.9107 22.8575V22.5012C79.9107 19.6503 81.2733 18.1072 83.5114 18.1072C85.7762 18.1072 87.0967 19.7466 87.0967 22.4956V22.852Z" fill="white"/>
<path fill-rule="evenodd" clip-rule="evenodd" d="M64.0605 30.6396H68.3599L68.2683 25.0551C68.2683 20.6298 69.6943 19.0937 73.1663 19.0937H74.4929L74.4512 14.3984L73.8245 14.3984C70.8285 14.3984 69.0039 15.7303 68.3599 18.3063L67.574 14.6318L64.0605 14.6506V30.6396Z" fill="white"/>
<path fill-rule="evenodd" clip-rule="evenodd" d="M45 10.6758V30.6398H52.9297C56.9595 30.6403 61.4416 27.7278 61.4416 21.2878V19.9158C61.4416 13.5038 57.2449 10.6758 52.8177 10.6758H45ZM49.9792 14.7825C50.7239 14.7825 53.0455 14.7272 53.0455 14.7272C55.2443 14.7272 56.7988 16.8029 56.7988 20.0407V21.1454C56.7988 24.5698 55.2343 26.3169 53.1862 26.3169C53.1862 26.3169 50.8214 26.3722 50.0551 26.3722C49.8608 26.3722 49.0779 26.6611 49.0779 26.6611L49.4722 25.7902V15.4002L48.9799 14.4995C48.9799 14.4995 49.8102 14.7825 49.9792 14.7825Z" fill="white"/>
<path fill-rule="evenodd" clip-rule="evenodd" d="M10.9178 16.7853L1.94824 11.071L10.9812 5.31641L20.007 11.0666L29.0333 5.31641L38.0659 11.071L29.0963 16.7852L38.066 22.4997L29.0332 28.2543L20.0071 22.504L10.9811 28.2543L1.94824 22.4997L10.9178 16.7853ZM20.007 11.0753L28.9699 16.7853L20.0071 22.4953L11.0442 16.7852L20.007 11.0753ZM20.072 35.916L11.0392 30.1613L20.072 24.4073L29.105 30.1613L20.072 35.916Z" fill="#0061FF"/>
</svg>
